<?xml version="1.0" encoding="iso-8859-1"?>
            <svg
              version="1.1"
              id="Layer_1"
              xmlns="http://www.w3.org/2000/svg"
              xmlns:xlink="http://www.w3.org/1999/xlink"
              x="0px"
              y="0px"
              viewBox="0 0 512 512"
              style="enable-background: new 0 0 512 512"
              xml:space="preserve"
            >
              <path
                style="fill: #9ed368"
                d="M0,256.006C0,397.402,114.606,512.004,255.996,512C397.394,512.004,512,397.402,512,256.006
	C512.009,114.61,397.394,0,255.996,0C114.606,0,0,114.614,0,256.006z"
              />
              <g>
                <path
                  style="fill: #8bc052"
                  d="M472.344,392.806c-0.214-0.207-0.389-0.467-0.636-0.634
		c-0.476-0.609-171.362-171.562-171.979-171.981c-0.476-0.609-0.975-1.174-1.593-1.594c-2.218-2.836-6.149-3.79-9.38-1.951
		l-11.137,6.367c-0.365-0.421-37.249-37.246-37.867-37.698c-1.341-1.839-3.409-3.113-5.862-3.113h-59.037
		c-4.079,0-7.38,3.305-7.38,7.379v21.422c-12.338,4.332-21.339,10.471-28.576,16.503l-19.003-10.861
		c-3.51-2.011-8-0.803-10.039,2.695l-29.762,51.132c-0.989,1.697-1.262,3.718-0.749,5.618c0.417,1.57,1.429,2.852,2.698,3.835
		c0.43,0.625,18.266,18.361,18.698,18.75c-0.267,2.998-0.432,5.994-0.432,8.97c0,5.43,0.441,10.882,1.305,16.276l-18.846,10.793
		c-1.709,0.977-2.948,2.594-3.458,4.49c-0.513,1.899-0.238,3.925,0.75,5.62l29.734,51.143c0.576,0.99,1.37,1.741,2.258,2.343
		c0.477,0.609,110.851,111.051,111.469,111.47c0.033,0.042,0.077,0.069,0.11,0.111c10.609,1.339,21.396,2.107,32.368,2.107
		C347.066,512.002,426.963,464.423,472.344,392.806z"
                />
                <path
                  style="fill: #8bc052"
                  d="M502.966,188.581c-0.126-0.106-85.727-85.922-86.343-86.343c-2.195-2.813-6.065-3.789-9.294-2.015
		l-5.693,3.143c-0.276-0.278-19.458-19.323-20.077-19.775c-0.452-0.62-0.973-1.139-1.593-1.591c-1.341-1.839-3.408-3.113-5.86-3.113
		h-29.52c-4.078,0-7.379,3.305-7.379,7.379v11.797c-4.915,2.076-9.57,4.811-13.787,8.1l-10.061-5.859
		c-1.678-0.987-3.711-1.258-5.606-0.753c-1.901,0.505-3.516,1.744-4.496,3.445l-14.746,25.573c-0.979,1.7-1.246,3.722-0.726,5.618
		c0.419,1.559,1.429,2.831,2.692,3.808c0.43,0.626,10.313,10.412,10.751,10.804c-0.087,1.296-0.271,2.586-0.271,3.884
		c0,2.677,0.202,5.405,0.606,8.158l-10.219,5.856c-1.709,0.977-2.948,2.594-3.459,4.491c-0.512,1.899-0.238,3.921,0.749,5.621
		l14.868,25.584c0.556,0.96,175.19,175.474,175.817,175.902c0.306,0.396,0.683,0.708,1.039,1.039
		C500.508,342.751,512,300.727,512,256.005C512.001,232.661,508.818,210.071,502.966,188.581z"
                />
              </g>
              <g>
                <path
                  style="fill: #f6f6f6"
                  d="M204.372,256c-28.481,0-51.658,23.17-51.658,51.651c0,28.489,23.177,51.665,51.658,51.665
		s51.658-23.177,51.658-51.665C256.031,279.17,232.853,256,204.372,256z M204.372,344.557c-20.345,0-36.898-16.558-36.898-36.906
		c0-20.341,16.554-36.892,36.898-36.892s36.898,16.55,36.898,36.892C241.271,327.999,224.717,344.557,204.372,344.557z"
                />
                <path
                  style="fill: #f6f6f6"
                  d="M360.161,123.166c-16.237,0-29.446,13.246-29.446,29.526c0,16.273,13.21,29.511,29.446,29.511
		s29.446-13.238,29.446-29.511C389.607,136.412,376.398,123.166,360.161,123.166z M360.161,167.443
		c-8.1,0-14.687-6.62-14.687-14.752c0-8.144,6.587-14.767,14.687-14.767c8.1,0,14.687,6.623,14.687,14.767
		C374.848,160.825,368.261,167.443,360.161,167.443z"
                />
                <path
                  style="fill: #f6f6f6"
                  d="M329.28,276.096c0.512-1.899,0.238-3.92-0.75-5.621l-29.735-51.132
		c-2.032-3.499-6.508-4.706-10.039-2.695l-18.99,10.857c-7.221-6.035-16.193-12.176-28.495-16.496v-21.426
		c0-4.076-3.3-7.379-7.379-7.379h-59.038c-4.079,0-7.379,3.305-7.379,7.379v21.422c-12.338,4.332-21.339,10.471-28.575,16.503
		l-19.004-10.861c-3.509-2.011-8-0.803-10.039,2.695l-29.763,51.133c-0.988,1.697-1.261,3.718-0.75,5.618
		c0.505,1.899,1.751,3.517,3.452,4.494l18.823,10.806c-0.873,5.42-1.312,10.868-1.312,16.255c0,5.43,0.439,10.882,1.305,16.276
		l-18.846,10.793c-1.708,0.976-2.947,2.594-3.459,4.49c-0.512,1.899-0.238,3.924,0.75,5.621l29.735,51.142
		c2.039,3.506,6.515,4.72,10.032,2.703l19.084-10.882c9.355,7.765,18.305,12.947,28.567,16.532v21.411
		c0,4.076,3.3,7.379,7.379,7.379h59.038c4.079,0,7.379-3.305,7.379-7.379v-21.422c12.273-4.32,21.26-10.464,28.495-16.507
		l18.946,10.861c3.503,2.011,8.006,0.818,10.046-2.691l29.749-51.142c0.988-1.7,1.261-3.723,0.75-5.621
		c-0.505-1.895-1.751-3.514-3.452-4.49l-18.81-10.793c0.873-5.449,1.312-10.9,1.312-16.281c0-5.387-0.439-10.835-1.312-16.255
		l18.831-10.806C327.529,279.61,328.775,277.991,329.28,276.096z M295.105,281.198c-2.782,1.597-4.209,4.806-3.538,7.941
		c1.312,6.158,1.982,12.381,1.982,18.507c0,6.105-0.67,12.341-1.989,18.54c-0.663,3.135,0.771,6.342,3.546,7.935l16.914,9.703
		l-22.326,38.387l-17.131-9.82c-2.761-1.585-6.226-1.218-8.591,0.908c-10.897,9.758-20.193,15.123-32.106,18.522
		c-3.171,0.901-5.355,3.798-5.355,7.095v19.437h-44.278v-19.437c0-3.297-2.183-6.194-5.355-7.095
		c-11.999-3.423-21.317-8.788-32.163-18.517c-2.371-2.126-5.83-2.505-8.583-0.918l-17.26,9.841l-22.326-38.394l16.95-9.708
		c2.789-1.597,4.223-4.814,3.546-7.953c-1.312-6.1-1.974-12.334-1.974-18.525c0-6.126,0.67-12.349,1.982-18.507
		c0.67-3.135-0.756-6.346-3.538-7.941l-16.929-9.714l22.348-38.39l17.188,9.823c2.753,1.574,6.226,1.214,8.583-0.908
		c10.868-9.732,20.186-15.094,32.178-18.507c3.171-0.905,5.355-3.802,5.355-7.099v-19.44h44.278v19.44
		c0,3.297,2.183,6.194,5.355,7.099c11.949,3.402,21.246,8.764,32.084,18.499c2.356,2.118,5.838,2.486,8.591,0.915l17.181-9.819
		l22.319,38.383L295.105,281.198z"
                />
                <path
                  style="fill: #f6f6f6"
                  d="M429.295,166.705l-10.132-5.838c0.432-2.814,0.641-5.524,0.641-8.183
		c0-2.688-0.202-5.42-0.598-8.165l10.226-5.859c1.708-0.976,2.947-2.594,3.459-4.494c0.512-1.895,0.238-3.92-0.75-5.618
		l-14.867-25.571c-2.018-3.462-6.414-4.691-9.946-2.753l-10.969,6.058c-4.295-3.203-9.412-6.053-14.875-8.266V86.267
		c0-4.076-3.3-7.379-7.379-7.379h-29.519c-4.079,0-7.379,3.305-7.379,7.379v11.797c-4.915,2.076-9.57,4.811-13.787,8.1
		l-10.061-5.859c-1.679-0.988-3.712-1.258-5.606-0.753c-1.903,0.505-3.517,1.744-4.497,3.445l-14.745,25.573
		c-0.98,1.7-1.247,3.723-0.727,5.618c0.512,1.895,1.759,3.506,3.467,4.479l10.277,5.867c-0.374,2.703-0.57,5.427-0.57,8.15
		c0,2.677,0.202,5.405,0.606,8.158l-10.219,5.856c-1.708,0.976-2.947,2.594-3.459,4.49c-0.512,1.899-0.238,3.92,0.75,5.621
		l14.867,25.584c0.988,1.705,2.617,2.941,4.518,3.434c1.903,0.49,3.935,0.202,5.629-0.797l9.779-5.809
		c4.223,3.294,8.879,6.029,13.779,8.097v11.783c0,4.076,3.3,7.379,7.379,7.379h29.519c4.079,0,7.379-3.305,7.379-7.379v-11.74
		c5.434-2.194,10.543-5.038,14.853-8.259l10.644,6.011c3.524,1.982,7.956,0.774,9.988-2.695l15.005-25.584
		c0.994-1.697,1.276-3.723,0.771-5.621C432.242,169.31,431.003,167.689,429.295,166.705z M403.797,142.439
		c0.829,3.47,1.247,6.918,1.247,10.244c0,3.171-0.432,6.518-1.318,10.23c-0.756,3.179,0.663,6.479,3.495,8.111l8.267,4.756
		l-7.574,12.911l-8.756-4.944c-2.811-1.582-6.32-1.168-8.677,1.052c-4.49,4.215-11.437,8.082-18.593,10.341
		c-3.07,0.97-5.161,3.82-5.161,7.038v9.541h-14.759v-9.541c0-3.218-2.09-6.068-5.161-7.038c-6.371-2.014-12.597-5.686-17.541-10.338
		c-2.4-2.259-5.989-2.649-8.828-0.973l-7.92,4.702l-7.394-12.72l8.346-4.782c2.839-1.629,4.273-4.937,3.509-8.122
		c-0.85-3.542-1.261-6.886-1.261-10.226c0-3.434,0.411-6.876,1.218-10.23c0.764-3.193-0.67-6.511-3.524-8.137l-8.411-4.8
		l7.337-12.727l8.179,4.764c2.803,1.639,6.393,1.239,8.764-1.002c4.923-4.627,11.156-8.295,17.541-10.323
		c3.062-0.973,5.146-3.82,5.146-7.034v-9.549h14.759v9.538c0,3.211,2.076,6.053,5.131,7.03c7.214,2.303,14.169,6.169,18.608,10.338
		c2.321,2.191,5.815,2.634,8.62,1.085l9.059-5.005l7.509,12.911l-8.346,4.782C404.467,135.954,403.041,139.254,403.797,142.439z"
                />
              </g>
              <g></g>
              <g></g>
              <g></g>
              <g></g>
              <g></g>
              <g></g>
              <g></g>
              <g></g>
              <g></g>
              <g></g>
              <g></g>
              <g></g>
              <g></g>
              <g></g>
              <g></g>
            </svg>
